<svg width="91" height="31" viewBox="0 0 91 31" fill="none" xmlns="http://www.w3.org/2000/svg">
<g clip-path="url(#clip0_9_548)">
<path d="M12.9391 6.55963C11.8975 6.61968 11.0805 6.15161 10.1978 5.96263C8.52951 5.60544 7.02623 5.97073 5.59815 6.78867C4.53747 7.39617 4.51044 7.93361 5.51272 8.60217C6.84475 9.49068 8.26966 10.2099 9.71535 10.9017C12.598 12.2812 14.5361 14.4041 14.5995 17.8014C14.6384 19.8937 13.6065 21.3537 11.7113 22.162C9.89353 22.9373 7.94943 23.1332 6.00608 23.1043C4.39251 23.0804 3.16164 22.1637 2.18066 20.9377C1.42142 19.9889 1.13035 18.9076 1.80928 17.8042C2.51315 16.6603 3.64033 16.4045 4.87147 16.684C6.00883 16.9422 7.12521 17.2913 8.31203 17.1401C8.64805 17.0974 9.01451 17.1369 9.31526 16.7551C9.13198 15.6258 8.19335 15.259 7.27206 14.9361C5.19845 14.2093 3.36053 13.1325 1.84794 11.5118C-0.440555 9.05963 -0.254238 5.86471 2.36226 3.78092C4.9164 1.74679 7.76554 1.19136 10.8819 2.24589C12.149 2.67468 13.0287 3.53518 13.4399 4.81022C13.6372 5.42171 13.7866 6.10185 12.9391 6.55963Z" fill="#37286B"/>
<path d="M71.9794 17.2669C70.4508 20.9762 67.1852 22.659 63.1 21.8829C62.4147 21.7527 61.7146 21.5519 61.0569 21.7704C59.3903 22.3239 58.2676 21.1009 58.2432 19.4053C58.2045 16.7109 58.4963 14.0445 58.7941 11.3795C59.0917 8.71713 59.4707 6.06371 59.8383 3.4098C59.909 2.8995 60.0833 2.40234 60.2257 1.90371C60.548 0.775233 61.2085 0.0230838 62.4654 0.259981C63.6882 0.490458 63.8609 1.44256 63.8888 2.53862C63.9398 4.54055 63.0414 6.32841 62.7409 8.24607C62.6827 8.61804 62.4477 8.98502 62.7441 9.38155C63.4 9.42672 63.8255 8.91977 64.3442 8.65344C67.4664 7.05029 69.9764 7.86026 71.5302 11.0027C72.514 12.9923 72.7408 15.0437 71.9794 17.2669ZM62.702 17.1147C63.9005 17.8883 65.4564 17.6094 66.764 16.3868C67.9781 15.2514 68.3859 13.5871 67.7361 12.3855C67.4098 11.7822 66.8577 11.5989 66.3137 11.932C64.4194 13.092 62.9292 14.586 62.702 17.1147Z" fill="#37286B"/>
<path d="M55.9873 19.7765C53.9052 21.7868 51.5207 22.4775 48.7919 21.9063C47.8925 21.7181 47.025 21.6752 46.1064 21.8331C44.9568 22.0308 44.2269 21.4682 43.9564 20.2956C43.5469 18.5207 43.8453 16.753 44.0018 14.9924C44.3656 10.9015 44.8101 6.81835 45.5387 2.77299C45.5996 2.43501 45.7337 2.11089 45.8235 1.77755C46.1279 0.647975 46.8429 0.0764566 48.0147 0.257318C49.0079 0.410637 49.599 1.43182 49.475 2.67707C49.3418 4.01471 49.0803 5.32433 48.6644 6.607C48.3746 7.50058 48.1522 8.41774 48.2022 9.40033C48.9246 9.40534 49.3705 8.94561 49.8876 8.66681C52.9672 7.00656 55.8504 7.98444 57.1983 11.2214C58.4624 14.257 58.302 17.1348 55.9873 19.7765ZM53.4158 14.6952C53.607 14.2872 53.6015 13.856 53.5437 13.4257C53.3148 11.7225 52.5269 11.3787 51.1112 12.3667C49.8405 13.2535 48.957 14.4679 48.3405 15.8662C47.8159 17.0561 48.2722 17.7136 49.5824 17.6045C51.3485 17.4576 52.6177 16.524 53.4158 14.6952Z" fill="#37286B"/>
<path d="M80.273 10.5031C81.1622 12.3377 81.992 14.0929 82.9494 16.118C84.0165 14.3698 84.9466 12.8399 85.8838 11.3145C86.201 10.7983 86.4938 10.2585 86.8724 9.79049C87.6962 8.77211 88.7726 8.49254 89.7346 9.03657C90.8195 9.65011 91.1669 10.6198 90.8636 11.8031C90.3665 13.7425 89.6227 15.598 88.7408 17.3857C86.8611 21.196 84.9257 24.9787 83.0052 28.7687C82.8099 29.1541 82.6157 29.5637 82.3265 29.873C81.5209 30.7347 80.5017 31.1036 79.3953 30.621C78.3598 30.1692 78.2612 29.2314 78.4191 28.1909C78.6849 26.4383 79.4878 24.8954 80.2352 23.3395C80.788 22.1888 80.7676 21.1854 80.217 20.0163C79.2046 17.8667 78.1393 15.713 77.8504 13.2999C77.7784 12.6986 77.7366 12.0881 77.7515 11.4835C77.7671 10.8525 77.9758 10.2857 78.6067 9.98907C79.2626 9.68069 79.7747 9.9175 80.273 10.5031Z" fill="#37286B"/>
<path d="M27.5107 20.949C27.2139 20.2421 27.1259 19.6098 27.13 18.9472C27.1485 15.9966 27.1426 13.0459 27.1499 10.0952C27.1509 9.70512 27.1377 9.30863 27.1997 8.92638C27.3505 7.99766 27.8472 7.24544 28.7699 7.05521C29.6899 6.86548 30.2822 7.52404 30.7269 8.26319C30.8804 8.5183 30.9852 8.80298 31.1476 9.14971C32.4524 8.92772 33.7106 8.37075 35.0706 8.78249C36.6697 9.26661 38.0089 10.0245 38.6876 11.6563C38.9911 12.3861 39.0535 13.1128 38.5091 13.7368C37.9687 14.3562 37.2438 14.3979 36.4826 14.2143C33.7565 13.5568 33.7522 13.5587 33.0065 16.4023C32.7433 17.4058 32.4602 18.3971 32.4859 19.4634C32.5228 20.9871 31.8286 22.0524 30.6168 22.3732C29.2781 22.7277 28.2498 22.2488 27.5107 20.949Z" fill="#37286B"/>
<path d="M19.667 17.2315C20.6045 17.8901 21.5787 17.6681 22.5129 17.684C23.5472 17.7018 24.5881 17.5929 25.6156 17.6739C26.7425 17.7626 27.094 18.6135 26.4559 19.4975C25.1715 21.2769 21.4903 22.3621 18.9959 21.6967C16.6797 21.0788 15.0233 19.1775 14.875 16.6092C14.6248 12.2789 17.5131 8.36404 21.1736 7.57932C23.4629 7.08857 25.7115 8.95611 25.5018 11.1307C25.4421 11.7502 25.1977 12.188 24.5963 12.4198C23.9967 12.6509 23.6314 12.3422 23.2457 11.9485C22.1784 10.8591 21.7808 10.8661 20.7103 11.9294C19.2969 13.3333 18.8303 15.5092 19.667 17.2315Z" fill="#37286B"/>
<path d="M77.3274 10.96C77.3121 13.6685 77.9548 16.2526 77.3431 18.8389C77.3233 18.9225 77.3278 19.0116 77.3124 19.0966C77.0211 20.7039 76.1332 21.6789 75.0015 21.6359C73.8441 21.5919 72.9014 20.4571 72.7847 18.843C72.5033 14.952 72.7995 11.0638 72.9023 7.17503C72.9194 6.52742 73.0058 5.8815 73.0183 5.23398C73.0294 4.66422 73.0918 4.10742 73.3017 3.58064C73.6239 2.77222 74.1537 2.07158 75.0678 2.10543C75.9203 2.13701 76.4561 2.80374 76.6253 3.62434C76.825 4.59292 76.9517 5.58124 77.0402 6.56732C77.1678 7.98745 77.2324 9.41329 77.3274 10.96Z" fill="#37286B"/>
<path d="M43.0184 20.191C42.4936 21.2827 41.7687 21.9308 40.6167 21.5609C39.524 21.2101 39.0808 20.2509 39.1736 19.2004C39.4129 16.4931 39.8024 13.8018 40.3443 11.1349C40.5295 10.2233 40.987 9.59233 41.9608 9.59918C42.9579 9.60618 43.453 10.2931 43.4974 11.1971C43.6438 14.1742 43.7988 17.1585 43.0184 20.191Z" fill="#37286B"/>
<path d="M40.0624 6.59842C39.7102 5.97208 39.49 5.4313 39.7754 4.79926C40.2206 3.81353 41.3284 3.34746 42.2168 3.79981C43.1554 4.27772 43.4494 5.54016 42.8388 6.4708C42.1726 7.48603 41.2686 7.55631 40.0624 6.59842Z" fill="#37286B"/>
</g>
<defs>
<clipPath id="clip0_9_548">
<rect width="91" height="31" fill="white"/>
</clipPath>
</defs>
</svg>
